<?xml version="1.0" encoding="UTF-8" standalone="no"?> <svg xmlns="http://www.w3.org/2000/svg" viewBox="0 0 48 48"><defs><style>.cls-1{fill:#eaeff0;}.cls-2{fill:#d9e1e2;}</style></defs><g id="Air_Conditioner" data-name="Air Conditioner"><rect class="cls-1" x="1" y="10" width="46" height="22" rx="4"/><path class="cls-2" d="M40,32V28a2,2,0,0,0-2-2H10a2,2,0,0,0-2,2v4Z"/><path d="M43,9H5a5.006,5.006,0,0,0-5,5V28a5.006,5.006,0,0,0,5,5H43a5.006,5.006,0,0,0,5-5V14A5.006,5.006,0,0,0,43,9ZM9,31V28a1,1,0,0,1,1-1H38a1,1,0,0,1,1,1v3Zm37-3a3,3,0,0,1-3,3H41V28a3,3,0,0,0-3-3H10a3,3,0,0,0-3,3v3H5a3,3,0,0,1-3-3V14a3,3,0,0,1,3-3H43a3,3,0,0,1,3,3Z"/><path d="M10,14H6a1,1,0,0,0,0,2h4a1,1,0,0,0,0-2Z"/><circle cx="42" cy="15" r="1"/><circle cx="38" cy="15" r="1"/><path d="M10,35a1,1,0,0,0-1,1v4a1,1,0,0,0,2,0V36A1,1,0,0,0,10,35Z"/><path d="M14,35a1,1,0,0,0-1,1v6a1,1,0,0,0,2,0V36A1,1,0,0,0,14,35Z"/><path d="M18,35a1,1,0,0,0-1,1v3a1,1,0,0,0,2,0V36A1,1,0,0,0,18,35Z"/><path d="M30,35a1,1,0,0,0-1,1v4a1,1,0,0,0,2,0V36A1,1,0,0,0,30,35Z"/><path d="M34,35a1,1,0,0,0-1,1v6a1,1,0,0,0,2,0V36A1,1,0,0,0,34,35Z"/><path d="M38,35a1,1,0,0,0-1,1v3a1,1,0,0,0,2,0V36A1,1,0,0,0,38,35Z"/></g></svg>