<?xml version="1.0" encoding="UTF-8" standalone="no"?> <svg xmlns="http://www.w3.org/2000/svg" viewBox="0 0 48 48"><g id="Fan"><path d="M32,37H28V34.505a17,17,0,1,0-8,0V37H16a5.006,5.006,0,0,0-5,5v2a3,3,0,0,0,3,3H34a3,3,0,0,0,3-3V42A5.006,5.006,0,0,0,32,37ZM9,18A15,15,0,1,1,24,33,15.017,15.017,0,0,1,9,18ZM22,34.872a15.689,15.689,0,0,0,4,0V37H22ZM35,44a1,1,0,0,1-1,1H14a1,1,0,0,1-1-1V42a3,3,0,0,1,3-3H32a3,3,0,0,1,3,3Z"/><path d="M25.591,21.666A16.15,16.15,0,0,1,29.7,27.584a1,1,0,0,0,.932.637.989.989,0,0,0,.359-.068c2.195-.844,6.021-3.679,4.8-8.365-.795-3.049-5.022-3.981-8.625-4.209a4.024,4.024,0,0,0-.8-.79A16.262,16.262,0,0,1,29.4,8.253a1,1,0,0,0-.158-1.4C27.4,5.379,23.021,3.5,19.6,6.925c-2.329,2.341-.671,6.8.709,9.534a3.964,3.964,0,0,0-.263,1.075,16.583,16.583,0,0,1-7.2.607,1,1,0,0,0-1.139.835c-.362,2.326.184,7.06,4.844,8.328a3.688,3.688,0,0,0,.984.133c2.835,0,5.451-3.193,6.967-5.488A4.007,4.007,0,0,0,25.591,21.666ZM24,16a2,2,0,1,1-2,2A2,2,0,0,1,24,16Zm9.853,4.292c.791,3.034-1.422,4.81-2.72,5.565a18.316,18.316,0,0,0-3.961-5.447A3.961,3.961,0,0,0,28,18c0-.119-.025-.231-.035-.348C31.333,17.992,33.5,18.947,33.853,20.292ZM21.017,8.337c2.211-2.21,4.863-1.195,6.17-.454a18.5,18.5,0,0,0-2.7,6.166A3.87,3.87,0,0,0,24,14a3.973,3.973,0,0,0-2.3.735C20.551,12.2,19.885,9.474,21.017,8.337ZM17.083,25.375c-3.014-.821-3.446-3.627-3.452-5.13a18.914,18.914,0,0,0,6.674-.722,4.013,4.013,0,0,0,2,2.088C20.675,23.871,18.628,25.8,17.083,25.375Z"/><circle cx="28" cy="42" r="1"/><circle cx="24" cy="42" r="1"/><circle cx="20" cy="42" r="1"/></g></svg>