<?xml version="1.0" encoding="UTF-8"?>
<!DOCTYPE svg PUBLIC "-//W3C//DTD SVG 1.1//EN" "http://www.w3.org/Graphics/SVG/1.1/DTD/svg11.dtd">
<!-- Creator: CorelDRAW -->
<svg xmlns="http://www.w3.org/2000/svg" xml:space="preserve" width="1.70666in" height="1.70666in" version="1.1" style="shape-rendering:geometricPrecision; text-rendering:geometricPrecision; image-rendering:optimizeQuality; fill-rule:evenodd; clip-rule:evenodd"
viewBox="0 0 1706.66 1706.66"
 xmlns:xlink="http://www.w3.org/1999/xlink"
 xmlns:xodm="http://www.corel.com/coreldraw/odm/2003">
 <defs>
  <style type="text/css">
   <![CDATA[
    .fil0 {fill:black}
   ]]>
  </style>
 </defs>
 <g id="Layer_x0020_1">
  <metadata id="CorelCorpID_0Corel-Layer"/>
  <path class="fil0" d="M1087.83 1282.78l-469.01 0c-10.37,0 -19.02,-7.92 -19.94,-18.26 -26.81,-303.08 -206.46,-224.58 -206.46,-531.25 0,-254.14 206.76,-460.9 460.89,-460.9 254.13,0 460.9,206.76 460.9,460.9 0,306.67 -179.91,228.5 -206.46,531.25 -0.91,10.33 -9.56,18.26 -19.92,18.26zm-450.91 -40.02l432.81 0c33.65,-299.44 204.48,-225.48 204.48,-509.49 0,-232.09 -188.8,-420.9 -420.88,-420.9 -232.08,0 -420.88,188.8 -420.88,420.9 0,283.98 170.85,210.07 204.48,509.49z"/>
  <path class="fil0" d="M496.81 753.27c-11.04,0 -20,-8.96 -20,-20 0,-207.62 168.9,-376.51 376.52,-376.51 26.33,0 26.32,40 0,40 -185.56,0 -336.51,150.95 -336.51,336.51 0,11.06 -8.96,20 -20,20z"/>
  <path class="fil0" d="M1112.81 1405.14l-518.96 0c-20.34,0 -36.88,-16.54 -36.88,-36.88l0 -88.61c0,-20.34 16.54,-36.88 36.88,-36.88l518.95 0c20.34,0 36.88,16.54 36.88,36.88l0 88.61c0.01,20.31 -16.53,36.87 -36.87,36.87zm-515.84 -40.02l512.7 0 0 -82.35 -512.7 0 0 82.34z"/>
  <path class="fil0" d="M1085.39 1527.48l-464.11 0c-20.34,0 -36.88,-16.54 -36.88,-36.88l0 -105.47c0,-11.04 8.96,-20 20,-20l497.87 0c11.04,0 20,8.97 20,20l0 105.47c0,20.33 -16.54,36.88 -36.88,36.88zm-460.98 -40.02l457.85 0 0 -82.33 -457.85 0 0 82.33z"/>
  <path class="fil0" d="M853.33 1706.78c-100.6,0 -182.44,-81.86 -182.44,-182.46 0,-12.44 -2.91,-36.87 20,-36.87l324.88 0c22.92,0 20,24.44 20,36.87 0.02,100.61 -81.85,182.46 -182.44,182.46zm-142.39 -179.3c1.68,77.09 64.91,139.29 142.39,139.29 77.5,0 140.73,-62.2 142.41,-139.29l-284.8 0z"/>
  <path class="fil0" d="M945.09 1282.78l-183.52 0c-11.04,0 -20,-8.97 -20,-20l0 -473.61c0,-11.04 8.96,-20 20,-20l183.54 0c11.04,0 20,8.96 20,20l0 473.59c0,11.06 -8.97,20.02 -20.02,20.02zm-163.54 -40.02l143.53 0 0 -433.59 -143.53 0 0 433.59z"/>
  <path class="fil0" d="M1011.54 809.17l-316.44 0c-26.33,0 -26.33,-40 0,-40l316.44 0c26.33,0 26.33,40 0,40z"/>
  <path class="fil0" d="M853.33 168.46c-11.04,0 -20,-8.96 -20,-20l0 -128.59c0,-26.33 40,-26.33 40,0l0 128.6c0,11.05 -8.96,19.99 -20,19.99z"/>
  <path class="fil0" d="M1173.68 254.31c-15.17,0 -25.08,-16.54 -17.3,-30l64.3 -111.36c13.18,-22.79 47.81,-2.81 34.64,20l-64.3 111.37c-3.7,6.42 -10.43,10 -17.33,10z"/>
  <path class="fil0" d="M1408.2 488.83c-20.31,0 -27.7,-27.13 -10.02,-37.32l111.38 -64.3c22.78,-13.16 42.82,21.48 20,34.64 -17.05,9.83 -109.76,66.99 -121.36,66.99z"/>
  <path class="fil0" d="M1622.63 809.17l-128.61 0c-26.33,0 -26.32,-40 0,-40l128.61 0c26.33,0 26.33,40 0,40z"/>
  <path class="fil0" d="M1519.55 1193.83c-11.59,0 -104.31,-57.16 -121.36,-66.98 -22.82,-13.16 -2.78,-47.8 20,-34.64l111.38 64.3c17.71,10.22 10.26,37.32 -10.02,37.32z"/>
  <path class="fil0" d="M187.12 1193.83c-20.31,0 -27.73,-27.12 -10.04,-37.34l111.37 -64.3c22.83,-13.16 42.79,21.48 20,34.64 -16.97,9.8 -109.83,67 -121.33,67z"/>
  <path class="fil0" d="M212.62 809.17l-128.59 0c-26.33,0 -26.33,-40 0,-40l128.59 0c26.32,0 26.35,40 0,40z"/>
  <path class="fil0" d="M298.44 488.83c-11.58,0 -104.33,-57.16 -121.35,-66.99 -22.77,-13.14 -2.84,-47.83 20,-34.64l111.37 64.3c17.67,10.2 10.31,37.32 -10.02,37.32z"/>
  <path class="fil0" d="M532.98 254.31c-6.92,0 -13.64,-3.58 -17.35,-10.02l-64.29 -111.37c-13.17,-22.81 21.47,-42.8 34.64,-20l64.29 111.36c7.77,13.47 -2.16,30.02 -17.29,30.02z"/>
 </g>
</svg>
