<?xml version="1.0" standalone="no"?>
<!DOCTYPE svg PUBLIC "-//W3C//DTD SVG 20010904//EN"
 "http://www.w3.org/TR/2001/REC-SVG-20010904/DTD/svg10.dtd">
<svg version="1.0" xmlns="http://www.w3.org/2000/svg"
 width="2500.000000pt" height="2500.000000pt" viewBox="0 0 2500.000000 2500.000000"
 preserveAspectRatio="xMidYMid meet">

<g transform="translate(0.000000,2500.000000) scale(0.100000,-0.100000)"
fill="#000000" stroke="none">
<path d="M6013 21220 c-54 -11 -148 -55 -363 -170 -507 -270 -1295 -727 -1476
-856 -138 -98 -212 -182 -290 -328 -81 -152 -129 -311 -204 -666 -167 -791
-457 -1716 -955 -3055 -67 -181 -250 -665 -405 -1075 -835 -2202 -1166 -3182
-1464 -4330 -448 -1724 -589 -3299 -410 -4550 200 -1396 803 -2212 1764 -2385
127 -23 448 -31 577 -16 638 79 1290 460 2003 1171 952 949 1944 2433 2957
4425 100 198 183 356 183 350 0 -5 -5 -37 -10 -70 -21 -125 -30 -382 -20 -552
26 -432 120 -804 286 -1135 233 -466 580 -743 1001 -799 115 -15 330 -6 454
21 292 61 577 204 878 442 134 105 426 395 561 558 375 451 738 1025 1093
1727 56 112 105 203 110 203 4 0 7 -17 7 -38 0 -98 44 -370 90 -552 174 -691
529 -1110 1030 -1216 127 -27 366 -25 482 4 468 116 872 506 1305 1259 248
432 489 952 923 1993 415 995 570 1328 738 1580 84 126 210 261 284 303 63 36
161 61 212 53 149 -24 359 -236 661 -666 146 -209 485 -719 485 -730 0 -6 -49
-100 -109 -208 -382 -692 -704 -1361 -948 -1967 -109 -271 -133 -354 -140
-480 -4 -78 -2 -114 12 -160 36 -124 114 -193 228 -202 56 -4 66 -2 109 26 65
42 106 103 179 266 180 403 480 964 814 1520 120 199 321 523 331 534 3 3 11
-4 18 -15 31 -44 162 -205 259 -318 549 -640 1106 -1018 1667 -1130 207 -42
532 -46 755 -11 547 86 1054 320 1545 711 279 222 644 616 867 934 276 393
476 819 529 1125 47 265 -42 416 -221 376 -90 -20 -119 -54 -234 -277 -276
-533 -554 -903 -886 -1182 -493 -414 -1107 -552 -1650 -371 -386 129 -775 454
-1150 959 -178 240 -471 705 -456 724 4 6 64 85 131 176 598 798 1168 1460
1751 2036 365 359 554 521 974 837 314 235 447 343 580 466 314 293 466 541
532 866 25 124 26 630 1 745 -50 230 -125 306 -295 299 -104 -5 -155 -31 -318
-162 -843 -676 -1866 -1763 -2766 -2937 -351 -458 -802 -1086 -1014 -1413 -27
-42 -53 -77 -57 -77 -3 0 -34 51 -69 113 -466 838 -844 1308 -1194 1482 -343
170 -685 88 -1014 -244 -393 -397 -738 -1027 -1362 -2489 -527 -1234 -610
-1422 -792 -1785 -317 -634 -553 -918 -762 -920 -70 0 -108 16 -160 70 -110
113 -165 362 -186 837 -11 268 -10 317 31 936 16 239 34 543 41 675 42 855
-84 1270 -391 1293 -154 11 -278 -45 -426 -192 -217 -216 -409 -579 -664
-1256 -577 -1531 -1145 -2602 -1665 -3139 -244 -252 -461 -373 -675 -374 -145
-2 -244 39 -341 138 -170 172 -260 471 -290 955 -29 484 37 983 282 2140 171
805 194 993 142 1145 -49 148 -145 207 -333 207 -180 1 -309 -56 -467 -205
-151 -143 -302 -348 -506 -688 -195 -325 -376 -669 -821 -1564 -244 -489 -500
-997 -570 -1129 -1098 -2063 -2322 -3782 -3194 -4483 -444 -357 -798 -453
-1058 -285 -258 167 -408 533 -481 1172 -22 197 -25 995 -5 1270 115 1537 501
3145 1280 5340 243 683 455 1244 1017 2680 673 1722 903 2346 1120 3050 310
1001 429 1761 350 2235 -51 312 -179 462 -362 425z"/>
</g>
</svg>
