<?xml version="1.0" standalone="no"?>
<!DOCTYPE svg PUBLIC "-//W3C//DTD SVG 20010904//EN"
 "http://www.w3.org/TR/2001/REC-SVG-20010904/DTD/svg10.dtd">
<svg version="1.0" xmlns="http://www.w3.org/2000/svg"
 width="1080.000000pt" height="1080.000000pt" viewBox="0 0 1080.000000 1080.000000"
 preserveAspectRatio="xMidYMid meet">

<g transform="translate(0.000000,1080.000000) scale(0.100000,-0.100000)"
fill="#000000" stroke="none">
<path d="M960 7897 c0 -22 5 -23 118 -34 212 -20 308 -85 348 -238 18 -66 21
-2896 3 -2990 -23 -126 -96 -206 -224 -247 -16 -6 -77 -13 -135 -17 -104 -6
-105 -6 -105 -31 l0 -25 1347 -3 1347 -2 5 32 c3 18 10 209 16 423 6 215 13
445 17 513 l6 122 -27 0 c-14 0 -26 -3 -26 -7 0 -5 -5 -73 -10 -153 -33 -462
-130 -693 -333 -794 -145 -71 -190 -76 -809 -76 l-548 0 0 1601 c0 1179 3
1612 12 1646 15 60 52 126 88 157 69 58 203 96 336 96 40 0 44 2 44 25 l0 25
-735 0 -735 0 0 -23z"/>
<path d="M4030 6997 c0 -22 5 -24 93 -35 202 -25 267 -78 315 -252 13 -46 16
-194 22 -885 5 -516 11 -850 18 -882 48 -234 107 -357 227 -472 123 -116 290
-182 515 -201 265 -24 502 39 643 169 123 114 195 259 249 506 12 55 13 31 18
-285 l5 -345 430 0 430 0 0 25 c0 25 -2 25 -99 31 -85 6 -108 12 -164 40 -76
39 -109 84 -139 184 -16 56 -18 147 -21 1243 l-3 1182 -449 0 -450 0 0 -24 c0
-22 5 -24 68 -30 90 -9 159 -25 203 -47 82 -41 132 -136 149 -287 12 -110 13
-1272 0 -1444 -24 -327 -101 -540 -249 -689 -118 -118 -233 -162 -423 -162
-135 0 -217 26 -291 92 -64 58 -91 103 -127 209 -63 191 -63 191 -67 1340 l-4
1042 -450 0 -449 0 0 -23z"/>
<path d="M7240 6996 c0 -22 4 -23 83 -29 129 -8 188 -35 277 -126 63 -64 132
-165 443 -648 202 -314 367 -577 367 -583 0 -23 -697 -986 -770 -1063 -75 -81
-145 -133 -210 -157 -19 -7 -91 -16 -160 -19 l-125 -6 0 -25 0 -25 598 -3 597
-2 0 29 0 29 -222 4 c-248 4 -284 12 -334 71 -22 26 -25 38 -21 76 10 94 76
194 672 1024 11 16 40 -25 252 -350 132 -202 259 -398 281 -435 118 -192 139
-283 80 -338 -33 -30 -89 -43 -223 -49 -120 -6 -120 -6 -120 -31 l0 -25 650 0
650 0 0 25 c0 24 -4 25 -70 31 -121 10 -193 54 -283 177 -54 72 -870 1315
-878 1337 -5 13 492 717 608 861 65 81 135 142 202 176 45 23 166 47 239 48
43 0 47 2 47 25 l0 25 -552 -2 -553 -3 -3 -21 c-3 -21 1 -21 180 -27 353 -10
418 -68 311 -277 -47 -92 -513 -754 -523 -743 -29 33 -478 738 -501 787 -40
83 -39 138 1 176 35 33 84 46 203 56 83 6 87 8 87 30 l0 24 -640 0 -640 0 0
-24z"/>
</g>
</svg>
