<?xml version="1.0" encoding="utf-8"?>
<!-- Svg Vector Icons : http://www.onlinewebfonts.com/icon -->
<!DOCTYPE svg PUBLIC "-//W3C//DTD SVG 1.1//EN" "http://www.w3.org/Graphics/SVG/1.1/DTD/svg11.dtd">
<svg version="1.1" xmlns="http://www.w3.org/2000/svg" xmlns:xlink="http://www.w3.org/1999/xlink" x="0px" y="0px" viewBox="0 0 256 256" enable-background="new 0 0 256 256" xml:space="preserve">
<metadata> Svg Vector Icons : http://www.onlinewebfonts.com/icon </metadata>
<g><g><g><path fill="#000000" d="M100.3,10.5c-22.5,2.3-43.8,12.4-60.3,28.7C0.1,78.4,0,142.2,39.8,181.8c13.2,13.1,29.6,22.3,47.7,26.6c5.9,1.4,14.5,2.5,19.4,2.5h3.6v-4.5v-4.5l-6.8-0.6c-22.4-1.9-42-11-57.6-26.7c-11.9-12-20.6-27.5-24.3-43.5c-2.3-9.9-2.9-23.7-1.4-33.4c4.9-33,26.9-60.4,58-72.4c9.9-3.8,20.7-5.8,32.2-5.8c14.1,0,25.8,2.5,38,8.3c10.2,4.7,18.3,10.4,26.2,18.2c16,16,25.4,36.6,26.9,59.7l0.3,4.7h4.5h4.6v-3.6c0-8.5-2.8-22.5-6.1-31.2c-5.6-14.3-13-25.8-23.4-36.2C160.1,18.2,130,7.4,100.3,10.5z"/><path fill="#000000" d="M98.7,37.2c-8.3,1.5-14.7,3.5-20.9,6.7c-21,10.6-35.3,29-40.2,52.1c-1.4,6.5-1.8,18.1-0.7,24.9c4.9,32.6,29.8,58.1,62,63.2c4.1,0.6,10.9,1.1,11.2,0.7c0.1-0.1,0.3-2.3,0.5-4.7l0.2-4.5h-2.6c-3.1,0-9.8-1-13.9-2c-19.5-5-36.1-19.5-43.8-38.4c-5.9-14.4-6.4-31.2-1.2-45.7c9.8-28,37.7-46.1,66.8-43.4c30.4,2.8,54.1,25.2,58.7,55.5c0.3,2.3,0.6,5.3,0.6,6.8v2.6l4.5-0.2c2.4-0.1,4.6-0.4,4.7-0.5c0.4-0.3,0-7.1-0.7-11.2c-5.1-32-30.5-57.2-62.8-62C114.8,36,104.6,36.1,98.7,37.2z"/><path fill="#000000" d="M105.6,62.6C90.7,64,77,72.8,69.1,85.8c-1.9,3.1-4.6,9.5-5.4,12.9c-1.1,4.3-1.6,11.2-1.2,16.3c1.2,13.6,8.1,25.8,19.2,34.3c6.5,5,16.3,8.7,24.9,9.4l3.8,0.4l0.1-4c0-2.2,0.1-4.3,0.1-4.8c0-0.6-0.6-0.8-3.8-1.1c-13.9-1.2-26.9-10.7-32.1-23.8c-2.2-5.5-2.7-8.3-2.7-14.8c0-5,0.2-6.9,1.1-9.8C76.9,86.9,86.8,77,100.5,73c4.8-1.3,14.5-1.5,19.1-0.2c11.4,3.1,19.9,9.8,25.1,19.6c2.6,5,4,9.4,4.4,14.4c0.3,3.6,0.4,3.9,1.4,3.8c0.6,0,2.7,0,4.7-0.1l3.8-0.1l-0.4-3.8c-1.7-20-15.6-36.9-34.9-42.5c-3.4-1-5.3-1.2-12.1-1.8C110.6,62.2,107.9,62.3,105.6,62.6z"/><path fill="#000000" d="M154,124.1c-1.6,0.8-27.2,26.2-29.3,29l-1.3,1.8v41.8c0,39.4,0,41.9,0.9,43.6c1.1,2.3,3.6,4.7,5.9,5.3c2.5,0.7,106.6,0.7,109.2,0c2.4-0.7,5.5-3.8,6.2-6.2c0.7-2.5,0.7-106.6,0-109.2c-0.6-2.3-2.9-4.8-5.3-5.9c-1.8-0.8-4.2-0.9-43.3-0.9C160.4,123.4,155.2,123.5,154,124.1z M236.7,184.3c0.1,43,0,51.5-0.6,52c-0.5,0.4-14.3,0.5-52,0.4l-51.4-0.1l-0.1-39.2l-0.1-39.2l12.8-12.8l12.8-12.8l39.2,0.1l39.2,0.1L236.7,184.3z"/><path fill="#000000" d="M164,162.1c-2.9,1.8-2.9,1.7-2.9,22.7c0,18.3,0,19.1,0.9,20.6c1.7,2.8,2.2,2.9,22.7,2.9c17.7,0,18.6,0,20.1-0.9c0.8-0.5,1.9-1.6,2.4-2.4c0.9-1.5,0.9-2.4,0.9-20.1c0-20.5,0-21-2.9-22.7c-1.5-0.9-2.3-0.9-20.7-0.9C166.5,161.2,165.4,161.2,164,162.1z M198.9,184.6l-0.1,14.2l-14.2,0.1l-14.2,0.1v-14.3v-14.3h14.3h14.3L198.9,184.6z"/></g></g></g>
</svg>